<svg xmlns="http://www.w3.org/2000/svg" viewBox="0 0 64 64">
  <defs>
    <linearGradient id="g" x1="0%" y1="0%" x2="100%" y2="100%">
      <stop offset="0%" stop-color="#1d4ed8"/>
      <stop offset="100%" stop-color="#60a5fa"/>
    </linearGradient>
  </defs>
  <rect width="64" height="64" rx="12" fill="url(#g)"/>
  <path d="M18 36c0-7.5 5.7-14 14-14 6.4 0 12 3.9 13.7 9.5l-5.1 1.6C39.2 29.9 35.9 28 32 28c-5 0-9 4-9 9s4 9 9 9c3.7 0 7-1.9 8.5-5h-6.5v-5h12v2c0 7.5-5.7 14-14 14s-14-6.5-14-14Z" fill="#fff"/>
  <circle cx="24" cy="24" r="4" fill="#e0f2fe"/>
</svg>

